<?xml version="1.0" encoding="utf-8"?>
<!-- Generator: Adobe Illustrator 15.1.0, SVG Export Plug-In  -->
<!DOCTYPE svg PUBLIC "-//W3C//DTD SVG 1.1//EN" "http://www.w3.org/Graphics/SVG/1.1/DTD/svg11.dtd" [
	<!ENTITY ns_flows "http://ns.adobe.com/Flows/1.0/">
]>
<svg version="1.1"
	 xmlns="http://www.w3.org/2000/svg" xmlns:xlink="http://www.w3.org/1999/xlink" xmlns:a="http://ns.adobe.com/AdobeSVGViewerExtensions/3.0/"
	 x="0px" y="0px" width="1000px" height="1000px" viewBox="-115.646 0 1000 1000"
	 overflow="visible" enable-background="new -115.646 0 1000 1000" xml:space="preserve">
<defs>
</defs>
<g>
	<defs>
		<rect id="SVGID_1_" x="0.096" width="768.515" height="1000"/>
	</defs>
	<clipPath id="SVGID_2_">
		<use xlink:href="#SVGID_1_"  overflow="visible"/>
	</clipPath>
	<path clip-path="url(#SVGID_2_)" fill="#EE2827" d="M384.305,231.391c212.247,0,384.307,172.06,384.307,384.305
		c0,212.247-172.06,384.305-384.307,384.305C172.06,1000,0,827.942,0,615.695C0,403.45,172.06,231.391,384.305,231.391"/>
</g>
<path fill="#FFFFFF" d="M158.172,615.695c0-124.688,101.444-226.133,226.134-226.133c124.69,0,226.131,101.444,226.131,226.133
	c0,124.693-101.441,226.133-226.131,226.133C259.616,841.828,158.172,740.389,158.172,615.695 M384.308,856.692
	c132.885,0,240.992-108.111,240.992-240.996c0-132.883-108.108-240.991-240.992-240.991c-132.886,0-240.996,108.109-240.996,240.991
	C143.312,748.581,251.422,856.692,384.308,856.692z"/>
<path fill="#FFFFFF" d="M14.862,615.695c0-203.713,165.732-369.441,369.446-369.441c203.713,0,369.444,165.728,369.444,369.441
	c0,203.714-165.731,369.445-369.444,369.445C180.594,985.141,14.862,819.409,14.862,615.695 M384.308,970.276
	c195.517,0,354.58-159.063,354.58-354.581c0-195.515-159.065-354.582-354.58-354.582c-195.518,0-354.584,159.066-354.584,354.582
	C29.723,811.213,188.79,970.276,384.308,970.276z"/>
<path fill="#FFFFFF" d="M70.925,673.463l44.967-10.907c3.208-0.779,5.8-1.614,7.776-2.506c1.969-0.894,3.757-2.031,5.351-3.408
	l4.318,17.806l6.256,25.781l-7.418-1.409l-7.467-1.397c0.671-3.272,0.971-6.273,0.897-9.001c-0.076-2.729-0.527-5.809-1.361-9.24
	l-0.582-2.396l-20.763,5.035l5.57,22.954l-14.972-3.741c0.285-3.734,0.425-6.639,0.418-8.713c-0.008-2.078-0.171-3.779-0.493-5.107
	l-0.71-2.921l-18.1,4.39c-3.209,0.779-5.802,1.615-7.778,2.509c-1.969,0.892-3.754,2.024-5.349,3.406l-4.941-20.372
	c2.049,0.492,4.154,0.694,6.324,0.601C65.027,674.694,67.712,674.243,70.925,673.463"/>
<path fill="#FFFFFF" d="M86.931,743.447c2.853-10.065,9.116-17.706,18.788-22.92c9.688-5.225,19.623-6.064,29.803-2.521
	c10.183,3.542,18.117,10.59,23.809,21.146c5.054,9.379,6.044,18.896,2.971,28.559c-3.075,9.664-9.463,17.111-19.169,22.341
	c-9.656,5.208-19.467,6.232-29.432,3.081c-9.967-3.153-17.637-9.716-23.011-19.682C85.329,763.513,84.078,753.516,86.931,743.447
	 M115.091,779.385c5.91,1.141,11.947,0.05,18.111-3.275c7.293-3.932,12.226-9.279,14.806-16.039
	c2.577-6.765,2.165-13.301-1.237-19.611c-2.729-5.058-7.049-8.156-12.955-9.294c-5.915-1.139-11.968-0.037-18.165,3.304
	c-7.263,3.917-12.174,9.26-14.743,16.031c-2.565,6.776-2.162,13.291,1.211,19.548C104.86,775.132,109.184,778.247,115.091,779.385z"
	/>
<path fill="#FFFFFF" d="M138.674,826.262c-0.266-10.458,3.446-19.615,11.133-27.466c7.699-7.864,16.937-11.618,27.71-11.26
	c10.774,0.363,20.447,4.734,29.016,13.122c7.613,7.452,11.381,16.248,11.317,26.39c-0.067,10.138-3.958,19.146-11.67,27.026
	c-7.674,7.84-16.735,11.733-27.19,11.681c-10.453-0.048-19.725-4.036-27.819-11.956
	C143.106,845.897,138.939,836.724,138.674,826.262 M176.238,852.217c5.979-0.666,11.42-3.504,16.32-8.509
	c5.796-5.919,8.918-12.492,9.374-19.714c0.455-7.224-1.883-13.343-7.007-18.358c-4.107-4.019-9.151-5.691-15.131-5.024
	c-5.981,0.668-11.436,3.516-16.361,8.547c-5.77,5.895-8.875,12.459-9.312,19.688c-0.441,7.229,1.88,13.334,6.96,18.305
	C165.207,851.191,170.257,852.88,176.238,852.217z"/>
<path fill="#FFFFFF" d="M222.034,889.387l24.266-43.054c-4.767-2.574-8.637-4.476-11.609-5.71c-4.297-1.791-7.566-2.54-9.8-2.244
	l5.063-5.521l5.107-5.5l49.94,28.143l-5.272,5.352l-5.315,5.329c-1.036-2.099-2.734-4.119-5.092-6.062
	c-2.126-1.772-5.237-3.835-9.333-6.18l-24.312,43.138c-1.526,2.708-2.626,5.093-3.295,7.16c-0.67,2.064-1.037,4.262-1.104,6.593
	l-18.727-10.556c1.96-1.265,3.654-2.715,5.088-4.346C219.043,894.276,220.509,892.096,222.034,889.387"/>
<path fill="#FFFFFF" d="M276.266,915.894l12.388-44.577c0.883-3.186,1.417-5.855,1.601-8.013c0.179-2.159,0.055-4.272-0.369-6.336
	l23.736,6.596c8.159,2.266,13.993,5.63,17.513,10.09s4.448,9.678,2.789,15.651c-1.652,5.947-5.363,9.851-11.125,11.714
	c-0.732,0.257-1.517,0.468-2.353,0.632c1.748,1.311,3.226,2.759,4.434,4.347c3.709,4.82,4.66,10.487,2.85,16.998
	c-1.812,6.516-5.489,10.896-11.03,13.146c-5.542,2.246-12.525,2.197-20.953-0.143l-25.828-7.178c1.431-1.549,2.632-3.29,3.607-5.228
	C274.459,921.671,275.372,919.107,276.266,915.894 M290.49,923.184c0.669,0.317,1.341,0.568,2.012,0.756
	c5.167,1.437,9.411,1.559,12.739,0.362c3.328-1.196,5.505-3.625,6.52-7.288c0.968-3.479,0.352-6.531-1.849-9.168
	c-2.199-2.632-5.819-4.649-10.861-6.052l-2.43-0.674L290.49,923.184z M299.214,891.787l0.922,0.254
	c4.565,1.268,8.332,1.371,11.303,0.299c2.971-1.069,4.908-3.227,5.81-6.472c0.833-3.001,0.345-5.635-1.469-7.902
	c-1.812-2.27-4.816-3.985-9.015-5.154l-2.115-0.584L299.214,891.787z"/>
<path fill="#FFFFFF" d="M338.926,932.257l23.276-47.883c1.245-2.463,2.328-4.798,3.244-7.003c0.919-2.206,1.427-3.692,1.523-4.45
	l6.244,0.256l6.248,0.251c0.032,0.766,0.417,2.284,1.152,4.559c0.734,2.274,1.625,4.687,2.668,7.243l19.32,49.614
	c1.351,3.553,2.558,6.417,3.615,8.586c1.055,2.172,2.183,4.128,3.386,5.858l-20.389-0.828c0.222-1.613,0.193-3.273-0.085-4.985
	c-0.283-1.714-0.881-3.858-1.793-6.442l-3.394-9.769l-27.936-1.135l-4.333,9.453c-0.906,1.904-1.534,3.701-1.892,5.386
	c-0.355,1.686-0.481,3.645-0.379,5.873l-9.054-0.367l-9.098-0.37c0.9-1.075,1.939-2.654,3.102-4.736
	C335.489,939.286,337.01,936.245,338.926,932.257 M361.425,914.66l18.57,0.755l-8.088-23.268h-0.066L361.425,914.66z"/>
<path fill="#FFFFFF" d="M421.12,946.603c0.627-2.014,0.959-4.103,0.99-6.267c0.032-2.166-0.237-4.875-0.806-8.13l-7.938-45.585
	c-0.563-3.221-1.226-5.845-1.984-7.875c-0.763-2.026-1.782-3.896-3.059-5.612l20.655-3.598c-0.631,2.016-0.959,4.104-0.989,6.267
	c-0.033,2.165,0.235,4.875,0.803,8.128l8.64,49.595c4.659-1.038,8.7-2.229,12.117-3.57c4.925-1.929,9.646-4.6,14.152-8.011
	l-1.987,8.941l-2.028,8.999L421.12,946.603"/>
<path fill="#FFFFFF" d="M480.717,934.391c0.249-2.094,0.192-4.206-0.174-6.341c-0.366-2.134-1.123-4.75-2.278-7.847l-16.153-43.359
	c-1.142-3.064-2.272-5.523-3.395-7.378c-1.118-1.856-2.464-3.505-4.033-4.955l19.646-7.322c-0.249,2.097-0.191,4.208,0.172,6.342
	c0.367,2.135,1.126,4.75,2.278,7.845l17.577,47.172c4.394-1.873,8.145-3.781,11.257-5.724c4.493-2.798,8.64-6.287,12.448-10.465
	l-0.317,9.152l-0.345,9.217L480.717,934.391"/>
<path fill="#FFFFFF" d="M609.262,855.891c-2.283,4.463-4.527,8.056-6.737,10.777c-2.211,2.718-5.171,5.52-8.882,8.399
	c-8.604,6.679-17.899,9.469-27.9,8.372c-9.996-1.101-18.224-5.812-24.687-14.138c-7.005-9.022-9.628-19.021-7.868-29.992
	c1.764-10.97,7.471-20.202,17.135-27.705c2.636-2.045,5.08-3.651,7.33-4.82c2.25-1.165,5.281-2.409,9.085-3.725l8.625,11.11
	c-4.28,0.37-7.86,1.095-10.744,2.179c-2.884,1.086-5.812,2.777-8.783,5.086c-5.396,4.189-8.313,9.724-8.744,16.596
	c-0.43,6.875,1.751,13.398,6.548,19.576c4.773,6.152,10.456,9.941,17.045,11.366c6.588,1.429,12.451,0.142,17.597-3.853
	c3.444-2.672,6.112-5.561,8.003-8.669c1.891-3.106,3.342-6.996,4.354-11.672L609.262,855.891"/>
<path fill="#FFFFFF" d="M626.57,843.88c-0.826-1.938-1.925-3.745-3.307-5.414c-1.376-1.67-3.332-3.563-5.875-5.676l-35.566-29.597
	c-2.513-2.096-4.718-3.665-6.613-4.719c-1.892-1.053-3.879-1.815-5.963-2.296l6.69-8.039l6.72-8.077
	c0.824,1.942,1.925,3.745,3.304,5.415c1.378,1.67,3.337,3.563,5.875,5.675l38.696,32.203c2.878-3.809,5.186-7.332,6.921-10.567
	c2.505-4.656,4.373-9.748,5.599-15.266l4.275,8.1l4.281,8.172L626.57,843.88"/>
<path fill="#FFFFFF" d="M617.911,755.479l27.214,14.467c5.411,2.877,10.236,3.95,14.473,3.222c4.235-0.729,7.463-3.185,9.683-7.356
	c1.976-3.72,2.195-7.328,0.651-10.825c-1.543-3.496-4.687-6.505-9.43-9.028L631.2,730.383c-2.916-1.551-5.414-2.651-7.482-3.294
	c-2.068-0.645-4.159-0.981-6.269-1.009l9.84-18.515c1.204,1.734,2.653,3.274,4.346,4.631c1.692,1.355,3.999,2.81,6.916,4.359
	l40.889,21.737c2.944,1.566,5.448,2.669,7.506,3.306c2.055,0.638,4.136,0.971,6.245,0.998l-7.858,14.779l-6.611-3.514l0.473,1.439
	c2.07,6.696,1.358,13.331-2.143,19.913c-3.856,7.256-9.062,11.72-15.616,13.396c-6.554,1.674-13.797,0.401-21.732-3.815
	l-29.144-15.494c-2.914-1.549-5.408-2.648-7.476-3.29c-2.066-0.645-4.155-0.978-6.262-1.006l4.908-9.235l4.934-9.28
	c1.2,1.733,2.64,3.284,4.323,4.651C612.687,752.481,614.994,753.927,617.911,755.479"/>
<path fill="#FFFFFF" d="M687.646,714.591l-44.937-11.022c-3.209-0.785-5.896-1.236-8.059-1.355
	c-2.161-0.115-4.268,0.072-6.319,0.562l2.491-10.154l3.378-13.773c2.017-8.224,5.199-14.159,9.549-17.815
	c4.351-3.648,9.537-4.74,15.558-3.263c5.994,1.468,10.008,5.056,12.051,10.761c0.278,0.726,0.512,1.501,0.702,2.334
	c1.255-1.787,2.657-3.309,4.208-4.566c4.703-3.855,10.338-4.975,16.904-3.366c6.567,1.612,11.059,5.153,13.477,10.624
	c2.414,5.474,2.58,12.451,0.499,20.946l-3.897,15.891l-2.49,10.146c-1.59-1.383-3.369-2.534-5.336-3.446
	C693.478,716.222,690.886,715.385,687.646,714.591 M662.85,692.386l0.227-0.928c1.132-4.604,1.114-8.371-0.045-11.307
	c-1.16-2.936-3.376-4.808-6.647-5.61c-3.025-0.739-5.644-0.17-7.854,1.711c-2.212,1.879-3.837,4.936-4.873,9.17l-0.521,2.131
	L662.85,692.386z M694.496,700.147c0.3-0.678,0.53-1.354,0.696-2.034c1.276-5.206,1.268-9.454-0.03-12.745
	c-1.298-3.289-3.788-5.39-7.479-6.294c-3.51-0.86-6.543-0.151-9.108,2.127c-2.564,2.282-4.47,5.962-5.717,11.045l-0.601,2.448
	L694.496,700.147z"/>
<path fill="#FFFFFF" d="M169.058,449.987l-20.939-48.494c-1.047-2.526-2.101-4.853-3.163-6.977c-1.064-2.124-1.847-3.474-2.35-4.049
	l4.132-4.265l4.133-4.262c0.59,0.486,1.963,1.23,4.121,2.225c2.157,0.995,4.513,1.975,7.078,2.943l49.118,19.421
	c3.498,1.415,6.389,2.471,8.672,3.173c2.287,0.7,4.45,1.204,6.504,1.506l-13.497,13.919c-1.056-1.235-2.313-2.323-3.764-3.269
	c-1.452-0.944-3.428-1.955-5.926-3.032l-9.397-4.129l-18.514,19.097l4.327,9.364c0.844,1.915,1.78,3.559,2.813,4.938
	c1.032,1.379,2.407,2.775,4.133,4.193l-12.013,12.39c-0.229-1.361-0.751-3.147-1.566-5.367
	C172.121,457.121,170.819,454.012,169.058,449.987 M170.156,422.287l12.305-12.693l-22.45-9.77l-0.006,0.006L170.156,422.287z"/>
<path fill="#FFFFFF" d="M225.052,396.606L201,357.08c-1.717-2.824-3.294-5.042-4.726-6.663c-1.431-1.618-3.026-2.993-4.784-4.118
	l20.009-12.175c6.875-4.186,13.045-5.977,18.513-5.376c5.466,0.601,9.812,3.549,13.038,8.848c3.206,5.272,3.625,10.579,1.263,15.925
	c-0.289,0.697-0.638,1.393-1.058,2.098c2.062-0.328,4.049-0.368,5.969-0.123c5.853,0.71,10.54,3.953,14.056,9.728
	c3.512,5.776,4.294,11.396,2.344,16.855c-1.957,5.46-6.483,10.351-13.588,14.672l-21.779,13.253
	c-0.191-2.077-0.668-4.128-1.437-6.154C228.04,401.87,226.786,399.454,225.052,396.606 M222.483,363.789l0.778-0.476
	c3.877-2.359,6.397-4.958,7.554-7.804c1.16-2.842,0.864-5.703-0.888-8.58c-1.619-2.662-3.831-4.13-6.642-4.411
	c-2.809-0.28-6,0.664-9.565,2.834l-1.796,1.092L222.483,363.789z M239.42,391.623c0.662-0.251,1.28-0.554,1.849-0.902
	c4.388-2.669,7.231-5.593,8.531-8.778c1.298-3.181,0.961-6.396-1.013-9.642c-1.881-3.087-4.48-4.758-7.8-5.018
	c-3.324-0.256-7.124,0.916-11.409,3.521l-2.062,1.256L239.42,391.623z"/>
<path fill="#FFFFFF" d="M280.674,380.855c0.248-2.07,0.2-4.176-0.139-6.312c-0.342-2.136-1.055-4.764-2.143-7.883l-15.245-43.684
	c-1.093-3.118-2.169-5.619-3.232-7.505c-1.061-1.882-2.331-3.559-3.816-5.026l39.589-13.815l-0.494,7.975l-0.54,7.986
	c-3.146-0.395-5.984-0.46-8.51-0.188c-2.529,0.271-5.315,0.938-8.368,2.001l-1.679,0.587l6.774,19.419l21.172-7.39l-0.965,7.505
	l-0.966,7.504c-3.575,0.024-6.349,0.121-8.314,0.298c-1.969,0.176-3.568,0.477-4.793,0.903l-2.722,0.952l7.173,20.546
	c4.787-1.874,8.825-3.808,12.104-5.798c4.368-2.638,8.382-5.953,12.053-9.942l-0.367,9.614l-0.367,9.616L280.674,380.855"/>
<path fill="#FFFFFF" d="M330.486,350.137l-5.394-45.957c-0.379-3.248-0.888-5.908-1.514-7.978c-0.628-2.069-1.504-3.997-2.637-5.785
	l21.583-2.532c8.316-0.974,14.957,0.183,19.911,3.474c4.951,3.296,7.842,8.459,8.67,15.496c0.823,7.042-1.313,12.798-6.409,17.269
	c-1.853,1.595-4.058,3.006-6.621,4.232l10.266,11.692c4.431,4.85,8.029,8.596,10.802,11.243c2.773,2.649,5.365,4.802,7.781,6.469
	l-14.258,1.673c-4.182-2.479-8.897-6.064-14.143-10.753c-5.245-4.685-9.6-9.178-13.051-13.471l-2.068-2.537l1.844,15.743
	c0.386,3.279,0.893,5.951,1.518,8.016c0.627,2.068,1.507,3.978,2.636,5.732l-19.769,2.321c0.692-1.971,1.11-4.034,1.258-6.193
	C331.004,356.135,330.869,353.418,330.486,350.137 M342.211,322.525c4.455-0.651,7.813-2.151,10.082-4.498
	c2.346-2.457,3.285-5.676,2.817-9.662c-0.4-3.415-1.902-5.917-4.508-7.501c-2.609-1.586-6.1-2.122-10.478-1.605l-0.636,0.074
	L342.211,322.525z"/>
<path fill="#FFFFFF" d="M394.329,344.592l6.155-45.858c0.436-3.243,0.604-5.943,0.508-8.106c-0.095-2.16-0.47-4.243-1.123-6.256
	l21.803,2.924c11.237,1.508,19.968,6.19,26.19,14.045c6.224,7.854,8.606,17.214,7.146,28.073
	c-1.452,10.834-6.092,19.233-13.91,25.205c-7.816,5.97-17.151,8.225-28,6.77l-23.151-3.105c1.158-1.735,2.075-3.633,2.753-5.69
	C393.345,350.536,393.89,347.867,394.329,344.592 M408.642,349.67l4.579,0.758c6.584,0.882,12.274-0.791,17.082-5.019
	c4.807-4.232,7.716-10.117,8.727-17.656c1.049-7.821-0.213-14.504-3.783-20.053c-3.568-5.544-8.688-8.767-15.36-9.664l-4.255-0.428
	L408.642,349.67z"/>
<path fill="#FFFFFF" d="M453.94,368.594c1.511-1.438,2.821-3.085,3.918-4.948c1.102-1.86,2.229-4.339,3.382-7.435l16.142-43.363
	c1.153-3.094,1.919-5.708,2.306-7.835c0.385-2.13,0.474-4.232,0.271-6.309l39.297,14.629l-5.471,5.825l-5.511,5.807
	c-2.169-2.312-4.312-4.174-6.435-5.578c-2.116-1.402-4.688-2.671-7.716-3.799l-1.67-0.621l-7.177,19.277l21.016,7.824l-11.063,10.32
	c-2.77-2.266-4.965-3.959-6.591-5.079c-1.63-1.12-3.051-1.907-4.267-2.36l-2.704-1.006l-7.594,20.395
	c4.887,1.616,9.226,2.704,13.021,3.265c5.043,0.755,10.252,0.769,15.628,0.04l-12.843,14.333L453.94,368.594"/>
<path fill="#FFFFFF" d="M502.835,388.044c1.773-1.097,3.388-2.443,4.847-4.042c1.457-1.595,3.07-3.791,4.834-6.587l24.667-39.144
	c1.761-2.795,3.048-5.194,3.858-7.199c0.812-2.002,1.331-4.044,1.556-6.118l35.476,22.356l-6.548,4.581l-6.582,4.554
	c-1.649-2.703-3.367-4.962-5.154-6.771c-1.787-1.808-4.045-3.575-6.778-5.297l-1.506-0.949l-10.968,17.401l18.972,11.954
	l-6.467,3.924l-6.473,3.919c-2.245-2.78-4.05-4.89-5.412-6.318c-1.367-1.431-2.598-2.494-3.696-3.185l-2.438-1.54l-11.605,18.414
	c4.452,2.578,8.479,4.531,12.079,5.854c4.783,1.769,9.879,2.846,15.287,3.233l-15.501,11.408L502.835,388.044"/>
<path fill="#FFFFFF" d="M570.294,419.637c-2.394,2.274-4.232,4.284-5.508,6.024c-1.281,1.742-2.282,3.596-3.008,5.547l-6.706-7.052
	l-6.734-7.084c1.989-0.627,3.888-1.535,5.694-2.728c1.803-1.188,3.906-2.917,6.302-5.197l34.604-32.897l2.04-16.251l15.113,15.899
	c-0.867,2.405-1.664,5.071-2.393,7.991c-0.728,2.92-1.541,6.767-2.437,11.539l-7.503,37.94l24.926-23.697
	c2.391-2.274,4.227-4.285,5.507-6.026c1.277-1.743,2.281-3.591,3.009-5.547l13.439,14.139c-2.014,0.649-3.923,1.565-5.727,2.755
	c-1.803,1.188-3.891,2.913-6.263,5.164l-27.273,25.931c-3.663,3.48-6.974,6.866-9.924,10.151c-2.951,3.289-4.733,5.575-5.348,6.87
	l-11.681-12.285c0.651-0.747,1.49-2.873,2.511-6.39c1.022-3.518,1.951-7.443,2.786-11.778l7.113-34.446L570.294,419.637"/>
<path fill="#FFFFFF" d="M373.924,509.152c31.583,0,57.182,25.602,57.182,57.183c0,31.579-25.6,57.18-57.182,57.18
	c-31.581,0-57.181-25.601-57.181-57.18C316.743,534.754,342.344,509.152,373.924,509.152"/>
<path fill="#FFFFFF" d="M458.89,683.822h125.419c-28.409,83.169-107.332,143.145-199.999,143.145h-0.005
	c-92.667,0-171.593-59.976-199.998-143.145l178.672-253.396l0.225-0.303c8.334-11.01,16.86-15.301,30.408-15.301h65.284v267.685
	L458.89,683.822 M436.601,682.561c0-36.791,0-226.991,0-245.449c-14.057,0-42.993,0-42.993,0c-6.557,0-8.461,0.973-12.585,6.406
	c-0.17,0.244-45.556,64.6-91.476,129.714c-29.123,41.302-77.989,110.59-77.989,110.59h225.042L436.601,682.561z"/>
<path fill="#EE2827" d="M400.819,602.894v-22.646l17.693-7.609l3.219,10.758c-2.712,7.6-7.184,14.362-12.927,19.799L400.819,602.894
	"/>
<polyline fill="#EE2827" points="390.911,578.656 391.265,551.585 366.847,544.156 351.632,566.093 367.377,587.324 
	390.911,578.656 "/>
<path fill="#EE2827" d="M341.372,598.47l17.871-4.245l14.682,15.924l-8.458,6.229c-9.022-1.514-17.238-5.408-23.978-11.017
	L341.372,598.47"/>
<path fill="#EE2827" d="M334.651,545.04l7.96,19.107l-12.386,15.745l-6.512-6.204c-0.348-2.4-0.529-4.857-0.529-7.355
	c0-6.37,1.173-12.467,3.317-18.082L334.651,545.04"/>
<path fill="#EE2827" d="M344.911,529.647l18.753,5.841l15.041-13.98l-6.069-5.903c-9.899,0.248-19.091,3.33-26.803,8.466
	L344.911,529.647"/>
<path fill="#EE2827" d="M394.276,524.518l2.297,19.107l19.286,7.256l3.661-6.849c-3.944-8.048-9.955-14.894-17.34-19.854
	L394.276,524.518"/>
<path fill="#EE2827" d="M313.839,762.493l-0.034-26.326h-10.351l10.026-8.294l10.055-8.296h-0.012v42.904
	c0,2.314,0.14,4.214,0.421,5.705c0.286,1.493,0.763,2.896,1.438,4.203h-13.403c0.719-1.441,1.225-2.909,1.519-4.4
	C313.771,766.501,313.886,764.671,313.839,762.493"/>
<path fill="#EE2827" d="M361.492,772.39h-14.305c0.581-0.402,1.289-1.098,2.114-2.092c0.826-0.995,1.567-1.995,2.214-3l9.256-15.078
	h-1.104c-4.554,0-8.28-1.423-11.182-4.271c-2.904-2.85-4.35-6.519-4.35-11.016c0-5.248,1.637-9.543,4.922-12.881
	c3.287-3.338,7.507-5.008,12.673-5.008c4.919,0,9.079,1.567,12.475,4.698c3.394,3.131,5.092,6.968,5.092,11.514
	c0,2.273-0.48,4.643-1.436,7.104c-0.96,2.461-2.652,5.674-5.081,9.644l-9.387,15.305c-0.447,0.714-0.86,1.563-1.235,2.54
	C361.801,770.835,361.577,771.679,361.492,772.39 M369.215,735.602c0-2.343-0.686-4.206-2.052-5.59
	c-1.37-1.382-3.225-2.074-5.561-2.074c-2.339,0-4.197,0.692-5.576,2.074c-1.381,1.382-2.07,3.245-2.07,5.59
	c0,2.369,0.689,4.247,2.07,5.641c1.379,1.395,3.239,2.09,5.576,2.09c2.336,0,4.197-0.696,5.576-2.09
	C368.536,739.849,369.215,737.969,369.215,735.602z"/>
<path fill="#EE2827" d="M391.392,765.842c-3.765-5.076-5.646-11.605-5.646-19.592c0-7.976,1.883-14.503,5.646-19.584
	c3.769-5.079,8.602-7.618,14.509-7.618c5.926,0,10.774,2.539,14.539,7.618c3.764,5.081,5.646,11.609,5.646,19.584
	c0,7.985-1.884,14.516-5.646,19.592c-3.767,5.074-8.613,7.61-14.539,7.61C399.993,773.452,395.158,770.916,391.392,765.842
	 M412.221,759.62c1.548-3.3,2.319-7.754,2.319-13.369c0-5.623-0.771-10.081-2.319-13.375c-1.547-3.291-3.653-4.938-6.32-4.938
	c-2.627,0-4.718,1.646-6.275,4.938c-1.558,3.294-2.334,7.752-2.334,13.375c0,5.615,0.776,10.072,2.334,13.369
	c1.558,3.294,3.648,4.942,6.275,4.942C408.567,764.562,410.674,762.914,412.221,759.62z"/>
<path fill="#EE2827" d="M444.882,728.469c-3.672,0-6.402,0.109-8.193,0.33c-1.792,0.221-3.042,0.599-3.754,1.131l1.193-4.909
	l1.194-4.911h32.112v0.087l-11.473,21.306c1.735,0.712,3.314,1.728,4.741,3.041c3.159,2.921,4.743,6.674,4.743,11.262
	c0,5.17-1.771,9.405-5.313,12.701c-3.54,3.301-8.094,4.946-13.662,4.946c-3.049,0-5.678-0.325-7.883-0.975
	c-2.207-0.65-4.531-1.785-6.978-3.403l4.619-9.113c1.47,1.557,2.995,2.691,4.577,3.403c1.579,0.712,3.371,1.065,5.377,1.065
	c2.359,0,4.237-0.709,5.63-2.128c1.39-1.416,2.089-3.341,2.089-5.773c0-2.905-0.998-5.208-2.986-6.919
	c-1.99-1.707-4.678-2.562-8.055-2.562h-0.502l10.132-18.579H444.882"/>
<path fill="#FFFFFF" d="M476.802,582.34v-40.588c0-2.899-0.17-5.28-0.512-7.146c-0.345-1.866-0.923-3.622-1.741-5.27h39.276
	l-2.72,6.085l-2.72,6.123c-2.647-1.277-5.141-2.17-7.479-2.684c-2.341-0.509-5.059-0.768-8.149-0.768h-2.153v18.711h20.569
	l-6.237,11.944c-3.12-1.011-5.566-1.729-7.333-2.149c-1.77-0.425-3.252-0.638-4.45-0.638h-2.547v16.366
	c0,2.903,0.169,5.286,0.512,7.157c0.342,1.87,0.923,3.626,1.744,5.272h-18.311c0.817-1.645,1.406-3.4,1.761-5.268
	C476.638,587.623,476.802,585.24,476.802,582.34"/>
<path fill="#FFFFFF" d="M572.613,590.774c-3.988,1.874-7.481,3.162-10.477,3.863c-2.998,0.696-6.56,1.047-10.686,1.047
	c-9.565,0-17.521-3.068-23.862-9.207c-6.345-6.138-9.514-13.828-9.514-23.073c0-10.022,3.56-18.36,10.689-25.016
	c7.129-6.651,16.062-9.979,26.802-9.979c2.93,0,5.489,0.202,7.679,0.604c2.188,0.402,4.957,1.175,8.307,2.314v12.341
	c-3.173-2.035-6.051-3.45-8.636-4.244c-2.587-0.799-5.535-1.196-8.846-1.196c-6.009,0-11.014,2.265-15.019,6.783
	c-4.006,4.524-6.008,10.211-6.008,17.057c0,6.82,1.904,12.492,5.714,17.016c3.805,4.524,8.574,6.784,14.302,6.784
	c3.834,0,7.243-0.567,10.233-1.702c2.987-1.131,6.092-3.041,9.319-5.731L572.613,590.774L572.613,590.774"/>
<polyline fill="#FFFFFF" points="231.802,0.689 259.706,86.573 350.008,86.573 276.951,139.651 304.856,225.532 231.802,172.454 
	158.746,225.532 186.649,139.651 113.598,86.573 203.897,86.573 231.802,0.689 "/>
<path fill="#EE2827" d="M231.599,0.622c0,0-27.761,85.442-27.857,85.736c-0.306,0-90.799,0-90.799,0s73.207,53.192,73.456,53.373
	c-0.093,0.292-28.06,86.358-28.06,86.358s73.212-53.192,73.462-53.374c0.247,0.181,73.459,53.374,73.459,53.374
	s-27.962-86.066-28.058-86.358c0.248-0.181,73.455-53.373,73.455-53.373s-90.494,0-90.799,0C259.765,86.064,231.802,0,231.802,0
	L231.599,0.622 M203.897,86.783h0.156c0,0,27.351-84.184,27.75-85.408c0.397,1.225,27.748,85.408,27.748,85.408s88.516,0,89.8,0
	c-1.039,0.757-72.647,52.785-72.647,52.785s27.351,84.183,27.748,85.407c-1.038-0.756-72.65-52.785-72.65-52.785
	s-71.609,52.029-72.653,52.785c0.397-1.224,27.75-85.407,27.75-85.407s-71.607-52.029-72.649-52.785
	C115.537,86.783,203.897,86.783,203.897,86.783z"/>
<path fill="#EE2827" d="M203.897,97.716h8.1c0,0,11.652-35.865,19.805-60.957c8.153,25.091,19.803,60.957,19.803,60.957
	s37.715,0,64.096,0c-21.341,15.508-51.852,37.675-51.852,37.675s11.655,35.865,19.805,60.958
	c-21.342-15.507-51.852-37.674-51.852-37.674s-30.511,22.167-51.856,37.674c8.155-25.093,19.807-60.958,19.807-60.958
	s-30.511-22.167-51.853-37.675C174.286,97.716,203.897,97.716,203.897,97.716"/>
<polyline fill="#FFFFFF" points="536.811,0.689 508.907,86.573 418.604,86.573 491.658,139.651 463.755,225.532 536.811,172.454 
	609.863,225.532 581.962,139.651 655.014,86.573 564.716,86.573 536.811,0.689 "/>
<path fill="#EE2827" d="M536.608,0.622c0,0-27.761,85.442-27.858,85.736c-0.305,0-90.799,0-90.799,0s73.209,53.192,73.456,53.373
	c-0.094,0.292-28.058,86.358-28.058,86.358s73.212-53.192,73.461-53.374c0.247,0.181,73.462,53.374,73.462,53.374
	s-27.966-86.066-28.06-86.358c0.248-0.181,73.456-53.373,73.456-53.373s-90.494,0-90.8,0C564.773,86.064,536.811,0,536.811,0
	L536.608,0.622 M508.907,86.783h0.154c0,0,27.352-84.184,27.749-85.408c0.397,1.225,27.748,85.408,27.748,85.408s88.516,0,89.804,0
	c-1.041,0.757-72.651,52.785-72.651,52.785s27.352,84.183,27.75,85.407c-1.042-0.756-72.653-52.785-72.653-52.785
	s-71.608,52.029-72.651,52.785c0.398-1.224,27.75-85.407,27.75-85.407s-71.608-52.029-72.65-52.785
	C420.546,86.783,508.907,86.783,508.907,86.783z"/>
<path fill="#EE2827" d="M620.711,97.716c-21.343,15.508-51.852,37.675-51.852,37.675s11.653,35.865,19.806,60.958
	c-21.345-15.507-51.854-37.674-51.854-37.674s-30.51,22.167-51.854,37.674c8.153-25.093,19.808-60.958,19.808-60.958
	s-30.509-22.167-51.854-37.675c26.383,0,64.095,0,64.095,0s11.651-35.865,19.806-60.957c8.154,25.091,19.806,60.957,19.806,60.957
	h8.099C564.716,97.716,594.328,97.716,620.711,97.716"/>
</svg>
